# xmcd
#
# Track frame offsets:
#	150
#	20281
#	41607
#	58928
#	81632
#	105962
#	129291
#	152968
#	171800
#	191693
#	210499
#	230617
#	252103
#	269757
#	292454
#	316824
#
# Disc length: 4539 seconds
#
# Revision: 0
# Processed by: cddbd v1.5.2PL0 Copyright (c) Steve Scherf et al.
# Submitted via: EasyCDDAExtractor 2010.6.0.0
#
DISCID=ea11b910
DTITLE=Anderson Roberto - Frases Nao Ditas
DYEAR=2009
DGENRE=Gospel
TTITLE0=Voltei
TTITLE1=Estrela Da Manha
TTITLE2=Frases Nao Ditas
TTITLE3=O Desafio Dos Profetas
TTITLE4=O Cego
TTITLE5=Na Casa Do Rei
TTITLE6=O Melhor Esta Por Vir
TTITLE7=Aqui Tem Fogo, Aqui Tem Gloria
TTITLE8=Tem Que Ser Voce
TTITLE9=A Vida Na Roca
TTITLE10=Voltei (Pb)
TTITLE11=Estrela Da Manha (Pb)
TTITLE12=Frases Nao Ditasx (Pb)
TTITLE13=O Desafio Dos Profetas (Pb)
TTITLE14=O Cego (Pb)
TTITLE15=Na Casa Do Rei (Pb)
EXTD=
EXTT0=
EXTT1=
EXTT2=
EXTT3=
EXTT4=
EXTT5=
EXTT6=
EXTT7=
EXTT8=
EXTT9=
EXTT10=
EXTT11=
EXTT12=
EXTT13=
EXTT14=
EXTT15=
PLAYORDER=
